<svg width="100%" height="100%" viewBox="0 0 28 28" fill="none" xmlns="http://www.w3.org/2000/svg">
<g id="Property 1=BSC Tag">
<path id="&#229;&#164;&#154;&#232;&#190;&#185;&#229;&#189;&#162;&#229;&#164;&#135;&#228;&#187;&#189;" fill-rule="evenodd" clip-rule="evenodd" d="M11.9998 1.15455C13.2374 0.440019 14.7622 0.44002 15.9998 1.15455L24.1242 5.84515C25.3618 6.55968 26.1242 7.88019 26.1242 9.30925V18.6905C26.1242 20.1195 25.3618 21.44 24.1242 22.1546L15.9998 26.8452C14.7622 27.5597 13.2374 27.5597 11.9998 26.8451L3.87549 22.1546C2.63788 21.44 1.87549 20.1195 1.87549 18.6905V9.30925C1.87549 7.88019 2.63788 6.55968 3.87549 5.84515L11.9998 1.15455Z" fill="#F0B90B"/>
<path id="&#229;&#164;&#154;&#232;&#190;&#185;&#229;&#189;&#162;&#229;&#164;&#135;&#228;&#187;&#189; (Stroke)" fill-rule="evenodd" clip-rule="evenodd" d="M23.5242 6.88438L15.3998 2.19378C14.5335 1.69361 13.4662 1.69361 12.5998 2.19378L4.47549 6.88438C3.60917 7.38455 3.07549 8.30891 3.07549 9.30925V18.6905C3.07549 19.6908 3.60916 20.6151 4.47549 21.1153L12.5998 25.8059C13.4662 26.3061 14.5335 26.3061 15.3998 25.8059L23.5242 21.1153C24.3905 20.6151 24.9242 19.6908 24.9242 18.6905V9.30925C24.9242 8.30891 24.3905 7.38455 23.5242 6.88438ZM15.9998 1.15455C14.7622 0.44002 13.2374 0.440019 11.9998 1.15455L3.87549 5.84515C2.63788 6.55968 1.87549 7.88019 1.87549 9.30925V18.6905C1.87549 20.1195 2.63788 21.44 3.87549 22.1546L11.9998 26.8451C13.2374 27.5597 14.7622 27.5597 15.9998 26.8452L24.1242 22.1546C25.3618 21.44 26.1242 20.1195 26.1242 18.6905V9.30925C26.1242 7.88019 25.3618 6.55968 24.1242 5.84515L15.9998 1.15455Z" fill="white"/>
<g id="icon_dex">
<path id="&#232;&#183;&#175;&#229;&#190;&#132;" d="M13.9999 6.7998L10.3999 8.9905L11.7234 9.7998L13.9999 8.41841L16.2764 9.7998L17.5999 8.9905L13.9999 6.7998Z" fill="white"/>
<path id="&#232;&#183;&#175;&#229;&#190;&#132;_2" d="M16.2764 11L17.5999 11.7894V13.3683L15.3234 14.7157V17.4106L13.9999 18.2L12.6764 17.4106V14.7157L10.3999 13.3683V11.7894L11.7234 11L13.9999 12.3475L16.2764 11Z" fill="white"/>
<path id="&#232;&#183;&#175;&#229;&#190;&#132;_3" d="M17.5999 14V15.6L16.3999 16.4V14.8L17.5999 14Z" fill="white"/>
<path id="&#232;&#183;&#175;&#229;&#190;&#132;_4" d="M16.3999 17.7743L18.6764 16.387V13.6125L19.9999 12.7998V17.1998L16.3999 19.3998V17.7743Z" fill="white"/>
<path id="&#232;&#183;&#175;&#229;&#190;&#132;_5" d="M18.2 10.6997L17 9.94971L18.2 9.19971L19.4 9.94971V11.4497L18.2 12.1997V10.6997Z" fill="white"/>
<path id="&#232;&#183;&#175;&#229;&#190;&#132;_6" d="M12.7998 19.7997V18.1997L13.9998 18.9997L15.1998 18.1997V19.7997L13.9998 20.5997L12.7998 19.7997Z" fill="white"/>
<path id="&#232;&#183;&#175;&#229;&#190;&#132;_7" d="M11.5999 16.4L10.3999 15.6V14L11.5999 14.8V16.4Z" fill="white"/>
<path id="&#232;&#183;&#175;&#229;&#190;&#132;_8" d="M13.9998 10.9997L12.7998 10.0997L13.9998 9.19971L15.1998 10.0997L13.9998 10.9997Z" fill="white"/>
<path id="&#232;&#183;&#175;&#229;&#190;&#132;_9" d="M10.4 9.94971L9.2 10.6997V12.1997L8 11.4497V9.94971L9.2 9.19971L10.4 9.94971Z" fill="white"/>
<path id="&#232;&#183;&#175;&#229;&#190;&#132;_10" d="M8 12.7998L9.32353 13.6125V16.387L11.6 17.7743V19.3998L8 17.1998V12.7998Z" fill="white"/>
</g>
</g>
</svg>
