<svg width="100%" height="100%" viewBox="0 0 28 28" fill="none" xmlns="http://www.w3.org/2000/svg">
<g id="Property 1=BTC Tag">
<path id="&#229;&#164;&#154;&#232;&#190;&#185;&#229;&#189;&#162;&#229;&#164;&#135;&#228;&#187;&#189;" fill-rule="evenodd" clip-rule="evenodd" d="M11.9998 1.15455C13.2374 0.440019 14.7622 0.44002 15.9998 1.15455L24.1242 5.84515C25.3618 6.55968 26.1242 7.88019 26.1242 9.30925V18.6905C26.1242 20.1195 25.3618 21.44 24.1242 22.1546L15.9998 26.8452C14.7622 27.5597 13.2374 27.5597 11.9998 26.8451L3.87549 22.1546C2.63788 21.44 1.87549 20.1195 1.87549 18.6905V9.30925C1.87549 7.88019 2.63788 6.55968 3.87549 5.84515L11.9998 1.15455Z" fill="#FEA02E"/>
<path id="&#229;&#164;&#154;&#232;&#190;&#185;&#229;&#189;&#162;&#229;&#164;&#135;&#228;&#187;&#189; (Stroke)" fill-rule="evenodd" clip-rule="evenodd" d="M23.5242 6.88438L15.3998 2.19378C14.5335 1.69361 13.4662 1.69361 12.5998 2.19378L4.47549 6.88438C3.60917 7.38455 3.07549 8.30891 3.07549 9.30925V18.6905C3.07549 19.6908 3.60916 20.6151 4.47549 21.1153L12.5998 25.8059C13.4662 26.3061 14.5335 26.3061 15.3998 25.8059L23.5242 21.1153C24.3905 20.6151 24.9242 19.6908 24.9242 18.6905V9.30925C24.9242 8.30891 24.3905 7.38455 23.5242 6.88438ZM15.9998 1.15455C14.7622 0.44002 13.2374 0.440019 11.9998 1.15455L3.87549 5.84515C2.63788 6.55968 1.87549 7.88019 1.87549 9.30925V18.6905C1.87549 20.1195 2.63788 21.44 3.87549 22.1546L11.9998 26.8451C13.2374 27.5597 14.7622 27.5597 15.9998 26.8452L24.1242 22.1546C25.3618 21.44 26.1242 20.1195 26.1242 18.6905V9.30925C26.1242 7.88019 25.3618 6.55968 24.1242 5.84515L15.9998 1.15455Z" fill="white"/>
<g id="BTC 1" clip-path="url(#clip0)">
<path id="Vector" d="M18.9541 13.9916C18.5784 14.88 17.9498 15.3124 17.0679 15.2886C17.5392 15.7133 17.8146 16.1726 17.8941 16.6663C17.9736 17.1599 17.808 17.7123 17.3972 18.3233C17.1857 18.6346 16.9528 18.8831 16.6985 19.0689C16.4442 19.2547 16.1826 19.3795 15.9137 19.4432C15.6447 19.507 15.3463 19.5202 15.0184 19.4827C14.6905 19.4453 14.3656 19.372 14.0438 19.2628C13.7219 19.1535 13.366 19.0048 12.9761 18.8166L12.0115 20.5882L10.9415 20.0056L11.891 18.2617C11.5205 18.06 11.2391 17.9039 11.0471 17.7933L10.0938 19.5441L9.02396 18.9616L9.98862 17.1899C9.90526 17.1445 9.78084 17.0752 9.61533 16.9821C9.4498 16.889 9.32309 16.8185 9.23512 16.7706L7.84552 16.014L8.75319 14.8598L9.52444 15.2797C9.75602 15.4058 9.95467 15.3609 10.1203 15.1448L12.7305 10.3508C12.8418 10.0031 12.7214 9.73339 12.3694 9.54171L11.5982 9.12178L12.2186 7.98231L13.6877 8.79127C13.9842 8.95268 14.2101 9.07271 14.3655 9.15125L15.3188 7.40039L16.3888 7.98298L15.4544 9.69911C15.8393 9.89662 16.1243 10.0459 16.3096 10.1467L17.2364 8.4445L18.3064 9.02709L17.3531 10.7779C17.7014 11.0096 17.9972 11.2382 18.2407 11.4639C18.4842 11.6895 18.6891 11.9362 18.8556 12.204C19.0221 12.4718 19.1148 12.7565 19.1338 13.058C19.1526 13.3596 19.0928 13.6708 18.9541 13.9916ZM15.3986 16.9648C15.4894 16.798 15.5354 16.6309 15.5365 16.4634C15.5376 16.2959 15.5099 16.1426 15.4535 16.0038C15.3969 15.865 15.3023 15.7218 15.1694 15.5744C15.0365 15.427 14.9081 15.3016 14.7843 15.1981C14.6605 15.0947 14.5004 14.9805 14.3042 14.8556C14.1079 14.7308 13.9519 14.6368 13.8361 14.5738C13.7203 14.5107 13.5697 14.4317 13.3842 14.3367C13.1987 14.2417 13.0874 14.1842 13.0504 14.164L11.7718 16.5124C11.8088 16.5326 11.8939 16.5804 12.0269 16.6558C12.16 16.7313 12.2705 16.793 12.3585 16.8409C12.4465 16.8888 12.5711 16.9521 12.7324 17.031C12.8936 17.1098 13.0342 17.1743 13.1539 17.2245C13.2737 17.2747 13.4164 17.3269 13.5822 17.3811C13.7478 17.4353 13.894 17.4729 14.0207 17.4937C14.1474 17.5147 14.2839 17.526 14.4302 17.5275C14.5764 17.5291 14.7057 17.5094 14.8181 17.4685C14.9304 17.4276 15.0376 17.3659 15.1396 17.2833C15.2415 17.2006 15.328 17.0945 15.3986 16.9648ZM16.706 13.389C16.7892 13.2362 16.834 13.0849 16.8404 12.9353C16.8468 12.7857 16.8292 12.6499 16.7874 12.5281C16.7457 12.4062 16.6698 12.2809 16.5599 12.152C16.4499 12.023 16.3434 11.9155 16.2402 11.8292C16.137 11.743 16.0047 11.6469 15.8432 11.541C15.6817 11.435 15.5505 11.3561 15.4497 11.3042C15.3488 11.2523 15.2225 11.1865 15.0707 11.1069C14.9189 11.0272 14.8268 10.9786 14.7944 10.961L13.633 13.0939C13.6562 13.1066 13.7355 13.1512 13.8708 13.2279C14.0062 13.3046 14.1139 13.3633 14.1939 13.4038C14.2739 13.4444 14.3922 13.5028 14.5488 13.5791C14.7054 13.6553 14.8397 13.712 14.9517 13.7489C15.0637 13.7859 15.1969 13.8253 15.3512 13.8673C15.5055 13.9093 15.6411 13.9276 15.7582 13.9222C15.8752 13.9169 15.9949 13.901 16.1173 13.8746C16.2398 13.8482 16.3509 13.7931 16.4505 13.7092C16.5502 13.6254 16.6353 13.5188 16.706 13.389Z" fill="white"/>
</g>
</g>
<defs>
<clipPath id="clip0">
<rect width="7.98131" height="7.98131" fill="white" transform="translate(11.0083 3.45996) scale(2) rotate(28.5673)"/>
</clipPath>
</defs>
</svg>
