<svg width="24" height="24" viewBox="0 0 24 24" fill="none" xmlns="http://www.w3.org/2000/svg">
<mask id="mask0" mask-type="alpha" maskUnits="userSpaceOnUse" x="0" y="0" width="24" height="24">
<rect width="24" height="24" fill="#C4C4C4"/>
</mask>
<g mask="url(#mask0)">
<path fill-rule="evenodd" clip-rule="evenodd" d="M12 22C17.5228 22 22 17.5228 22 12C22 6.47715 17.5228 2 12 2C6.47715 2 2 6.47715 2 12C2 17.5228 6.47715 22 12 22Z" fill="#7084ED"/>
<path d="M12.0002 17.8333C11.5728 17.8333 11.2206 17.5116 11.1724 17.0971L11.1668 16.9999V10.3333C11.1668 9.87301 11.5399 9.49992 12.0002 9.49992C12.4275 9.49992 12.7798 9.82162 12.8279 10.2361L12.8335 10.3333L12.8335 16.9999C12.8335 17.4602 12.4604 17.8333 12.0002 17.8333Z" fill="white"/>
<path fill-rule="evenodd" clip-rule="evenodd" d="M12.0004 6.99984C11.5402 6.99984 11.1671 7.37293 11.1671 7.83317C11.1671 8.29341 11.5402 8.6665 12.0004 8.6665C12.4606 8.6665 12.8337 8.29341 12.8337 7.83317C12.8337 7.37293 12.4606 6.99984 12.0004 6.99984Z" fill="white"/>
</g>
</svg>
