<svg width="180" height="40" viewBox="0 0 180 40" fill="none" xmlns="http://www.w3.org/2000/svg">
<mask id="mask0" mask-type="alpha" maskUnits="userSpaceOnUse" x="0" y="0" width="180" height="40">
<rect width="180" height="40" fill="#C4C4C4"/>
</mask>
<g mask="url(#mask0)">
<path fill-rule="evenodd" clip-rule="evenodd" d="M70.265 27.3595V20.8974C71.0818 19.6567 71.9331 19.0363 72.819 19.0363C73.5981 19.0363 73.9876 19.6193 73.9876 20.7851V27.3595H76.7772V20.1024C76.7772 19.0987 76.5102 18.3069 75.9761 17.7271C75.4421 17.1473 74.7133 16.8573 73.7897 16.8573C72.3509 16.8573 71.176 17.5806 70.265 19.027V12.5929H67.4755V27.3595H70.265ZM59.5749 27.7048C61.265 27.7048 62.5907 27.3401 63.552 26.6106C64.5132 25.8812 64.9939 24.8743 64.9939 23.59C64.9939 22.686 64.7394 21.9191 64.2305 21.2894C63.7216 20.6597 62.7949 19.9708 61.4504 19.2226L60.4514 18.6709C59.7037 18.2532 59.1948 17.9009 58.9247 17.6141C58.6545 17.3273 58.5194 16.9938 58.5194 16.6135C58.5194 16.1521 58.7126 15.7796 59.099 15.4959C59.4854 15.2122 59.999 15.0704 60.6399 15.0704C61.4692 15.0704 62.597 15.3354 64.0232 15.8653V13.6489C62.6284 13.331 61.375 13.172 60.2629 13.172C58.8744 13.172 57.7576 13.518 56.9126 14.21C56.0675 14.9021 55.645 15.8186 55.645 16.9595C55.645 17.8136 55.9026 18.5602 56.4178 19.1993C56.933 19.8383 57.8157 20.507 59.066 21.2052L59.999 21.7196C60.753 22.1435 61.265 22.5098 61.5352 22.8184C61.8053 23.1271 61.9404 23.5058 61.9404 23.9547C61.9404 24.522 61.7252 24.9709 61.2949 25.3014C60.8645 25.6318 60.2755 25.797 59.5278 25.797C58.4597 25.797 57.1749 25.4853 55.6733 24.8618V27.2372C57.156 27.5489 58.4566 27.7048 59.5749 27.7048ZM86.5595 25.4237C85.6548 26.8701 84.4799 27.5933 83.0348 27.5933C82.1113 27.5933 81.3825 27.3034 80.8484 26.7236C80.3144 26.1438 80.0473 25.352 80.0473 24.3482V17.0912H82.8369V23.6655C82.8369 24.8314 83.2296 25.4143 84.015 25.4143C84.8946 25.4143 85.7427 24.794 86.5595 23.5533V17.0912H89.3491V27.3595H86.5595V25.4237ZM96.5964 27.5933C96.9796 27.5933 97.5043 27.4967 98.1702 27.3034V25.62C97.8373 25.7073 97.5514 25.751 97.3126 25.751C96.276 25.751 95.7576 25.1213 95.7576 23.8619V18.8212H97.9723V17.0911H95.7576V15.0431L92.9681 15.361V17.0911H91.8089V18.8212H92.9681V24.2266C92.9681 26.4711 94.1775 27.5933 96.5964 27.5933ZM105.99 27.3034C105.324 27.4967 104.799 27.5933 104.416 27.5933C101.997 27.5933 100.787 26.4711 100.787 24.2266V18.8212H99.6282V17.0911H100.787V15.361L103.577 15.0431V17.0911H105.792V18.8212H103.577V23.8619C103.577 25.1213 104.095 25.751 105.132 25.751C105.371 25.751 105.657 25.7073 105.99 25.62V27.3034ZM111.27 27.3595V12.5929H108.48V27.3595H111.27ZM123.186 27.0136C121.86 27.4001 120.604 27.5934 119.416 27.5934C117.688 27.5934 116.325 27.1071 115.326 26.1345C114.327 25.1619 113.828 23.834 113.828 22.1506C113.828 20.5608 114.285 19.2812 115.199 18.3117C116.113 17.3422 117.321 16.8575 118.823 16.8575C120.337 16.8575 121.442 17.3313 122.14 18.279C122.837 19.2266 123.186 20.726 123.186 22.7772H116.768C116.957 24.7349 118.04 25.7137 120.019 25.7137C120.956 25.7137 122.011 25.4986 123.186 25.0684V27.0136ZM120.434 21.2153H116.721C116.903 19.4634 117.572 18.5874 118.728 18.5874C119.865 18.5874 120.434 19.4634 120.434 21.2153ZM128.963 21.5332V27.3594H126.06V13.5186H134.834V15.4171H128.963V19.6254H133.788V21.5332H128.963ZM139.932 27.3595V12.5929H137.142V27.3595H139.932ZM151.742 26.1625C150.781 27.1164 149.455 27.5933 147.765 27.5933C146.15 27.5933 144.867 27.1086 143.915 26.1391C142.963 25.1696 142.488 23.865 142.488 22.2254C142.488 20.567 142.967 19.2577 143.925 18.2976C144.883 17.3374 146.185 16.8574 147.831 16.8574C149.484 16.8574 150.789 17.3374 151.747 18.2976C152.705 19.2577 153.184 20.5607 153.184 22.2066C153.184 23.89 152.703 25.2086 151.742 26.1625ZM147.811 25.8632C147.083 25.8632 146.508 25.5359 146.087 24.8812C145.666 24.2266 145.455 23.3413 145.455 22.2253C145.455 21.0968 145.667 20.2084 146.092 19.56C146.516 18.9116 147.095 18.5874 147.83 18.5874C148.572 18.5874 149.154 18.9116 149.578 19.56C150.003 20.2084 150.215 21.0906 150.215 22.2066C150.215 24.6443 149.414 25.8632 147.811 25.8632ZM162.367 20.3177L160.256 27.3596H157.58L154.705 17.0913H157.297L159.333 24.2829L161.5 17.0913H163.913L165.864 24.3203L168.059 17.0913H170.001L166.929 27.3596H164.252L162.367 20.3177Z" fill="#3D3F4C"/>
<g filter="url(#filter0_d)">
<path fill-rule="evenodd" clip-rule="evenodd" d="M36.3891 14.987L27.1725 5.72202C26.2273 4.77191 24.6901 4.77044 23.7431 5.71876L10.0007 19.4808L44.4751 18.5818L20.4804 17.1534L23.8772 13.4605C24.7599 12.5009 26.2441 12.4127 27.2342 13.2611L29.2484 14.987H36.3891Z" fill="url(#paint0_linear)"/>
<path fill-rule="evenodd" clip-rule="evenodd" d="M18.086 25.7888L27.3026 35.0539C28.2478 36.004 29.785 36.0054 30.732 35.0571L44.4744 21.2951L9.99998 22.194L33.9947 23.6224L30.5979 27.3153C29.7152 28.275 28.231 28.3632 27.2409 27.5148L25.2267 25.7888L18.086 25.7888Z" fill="#BBBBBB"/>
</g>
</g>
<defs>
<filter id="filter0_d" x="6" y="5.00842" width="42.4751" height="38.7589" filterUnits="userSpaceOnUse" color-interpolation-filters="sRGB">
<feFlood flood-opacity="0" result="BackgroundImageFix"/>
<feColorMatrix in="SourceAlpha" type="matrix" values="0 0 0 0 0 0 0 0 0 0 0 0 0 0 0 0 0 0 127 0"/>
<feOffset dy="4"/>
<feGaussianBlur stdDeviation="2"/>
<feColorMatrix type="matrix" values="0 0 0 0 0.266667 0 0 0 0 0.843137 0 0 0 0 0.713726 0 0 0 0.14 0"/>
<feBlend mode="normal" in2="BackgroundImageFix" result="effect1_dropShadow"/>
<feBlend mode="normal" in="SourceGraphic" in2="effect1_dropShadow" result="shape"/>
</filter>
<linearGradient id="paint0_linear" x1="27" y1="6" x2="26.5" y2="21.5" gradientUnits="userSpaceOnUse">
<stop stop-color="#44D7B6"/>
<stop offset="1" stop-color="#44D7A2"/>
</linearGradient>
</defs>
</svg>
