<svg width="16" height="16" viewBox="0 0 16 16" fill="none" xmlns="http://www.w3.org/2000/svg">
<mask id="mask0" mask-type="alpha" maskUnits="userSpaceOnUse" x="-1" y="-1" width="18" height="18">
<circle cx="8" cy="8" r="8" fill="white" stroke="#EAEDFC"/>
</mask>
<g mask="url(#mask0)">
<path d="M14.2318 2L8.74121 6.06267L9.76224 3.66841L14.2318 2Z" fill="#E17726" stroke="#E17726" stroke-width="0.25" stroke-linecap="round" stroke-linejoin="round"/>
<path d="M1.56787 2L7.0096 6.10059L6.03748 3.6684L1.56787 2Z" fill="#E27625" stroke="#E27625" stroke-width="0.25" stroke-linecap="round" stroke-linejoin="round"/>
<path d="M12.2554 11.4199L10.7944 13.6517L13.9226 14.513L14.8187 11.4687L12.2554 11.4199Z" fill="#E27625" stroke="#E27625" stroke-width="0.25" stroke-linecap="round" stroke-linejoin="round"/>
<path d="M0.986328 11.4687L1.87699 14.513L4.99975 13.6517L3.54426 11.4199L0.986328 11.4687Z" fill="#E27625" stroke="#E27625" stroke-width="0.25" stroke-linecap="round" stroke-linejoin="round"/>
<path d="M4.83184 7.64967L3.96289 8.96057L7.0585 9.10141L6.95529 5.77002L4.83184 7.64967Z" fill="#E27625" stroke="#E27625" stroke-width="0.25" stroke-linecap="round" stroke-linejoin="round"/>
<path d="M10.9678 7.64951L8.81178 5.73193L8.74121 9.10125L11.8368 8.96041L10.9678 7.64951Z" fill="#E27625" stroke="#E27625" stroke-width="0.25" stroke-linecap="round" stroke-linejoin="round"/>
<path d="M5 13.6525L6.87363 12.7479L5.26069 11.4912L5 13.6525Z" fill="#E27625" stroke="#E27625" stroke-width="0.25" stroke-linecap="round" stroke-linejoin="round"/>
<path d="M8.92676 12.7479L10.795 13.6525L10.5397 11.4912L8.92676 12.7479Z" fill="#E27625" stroke="#E27625" stroke-width="0.25" stroke-linecap="round" stroke-linejoin="round"/>
<path d="M10.794 13.6517L8.92578 12.7471L9.07787 13.9604L9.06156 14.4751L10.794 13.6517Z" fill="#D5BFB2" stroke="#D5BFB2" stroke-width="0.25" stroke-linecap="round" stroke-linejoin="round"/>
<path d="M4.99902 13.6517L6.73691 14.4751L6.72604 13.9604L6.87269 12.7471L4.99902 13.6517Z" fill="#D5BFB2" stroke="#D5BFB2" stroke-width="0.25" stroke-linecap="round" stroke-linejoin="round"/>
<path d="M6.76955 10.6888L5.21631 10.2338L6.31338 9.72998L6.76955 10.6888Z" fill="#233447" stroke="#233447" stroke-width="0.25" stroke-linecap="round" stroke-linejoin="round"/>
<path d="M9.02881 10.6888L9.48502 9.72998L10.5875 10.2338L9.02881 10.6888Z" fill="#233447" stroke="#233447" stroke-width="0.25" stroke-linecap="round" stroke-linejoin="round"/>
<path d="M4.99992 13.6517L5.27144 11.4199L3.54443 11.4687L4.99992 13.6517Z" fill="#CC6228" stroke="#CC6228" stroke-width="0.25" stroke-linecap="round" stroke-linejoin="round"/>
<path d="M10.5278 11.4199L10.794 13.6517L12.2549 11.4687L10.5278 11.4199Z" fill="#CC6228" stroke="#CC6228" stroke-width="0.25" stroke-linecap="round" stroke-linejoin="round"/>
<path d="M11.8368 8.96094L8.74121 9.10178L9.02903 10.6889L9.48524 9.73014L10.5877 10.2339L11.8368 8.96094Z" fill="#CC6228" stroke="#CC6228" stroke-width="0.25" stroke-linecap="round" stroke-linejoin="round"/>
<path d="M5.21644 10.2339L6.31347 9.73014L6.76968 10.6889L7.0575 9.10178L3.96191 8.96094L5.21644 10.2339Z" fill="#CC6228" stroke="#CC6228" stroke-width="0.25" stroke-linecap="round" stroke-linejoin="round"/>
<path d="M3.96191 8.96094L5.2599 11.4906L5.21646 10.2339L3.96191 8.96094Z" fill="#E27525" stroke="#E27525" stroke-width="0.25" stroke-linecap="round" stroke-linejoin="round"/>
<path d="M10.5874 10.2339L10.5386 11.4906L11.8366 8.96094L10.5874 10.2339Z" fill="#E27525" stroke="#E27525" stroke-width="0.25" stroke-linecap="round" stroke-linejoin="round"/>
<path d="M7.0574 9.10156L6.76953 10.6887L7.1334 12.563L7.21487 10.0929L7.0574 9.10156Z" fill="#E27525" stroke="#E27525" stroke-width="0.25" stroke-linecap="round" stroke-linejoin="round"/>
<path d="M8.74144 9.10156L8.58936 10.0875L8.6654 12.563L9.02926 10.6887L8.74144 9.10156Z" fill="#E27525" stroke="#E27525" stroke-width="0.25" stroke-linecap="round" stroke-linejoin="round"/>
<path d="M9.0289 10.6894L8.66504 12.5636L8.92573 12.7478L10.5387 11.4911L10.5876 10.2344L9.0289 10.6894Z" fill="#F5841F" stroke="#F5841F" stroke-width="0.25" stroke-linecap="round" stroke-linejoin="round"/>
<path d="M5.21631 10.2344L5.25978 11.4911L6.87272 12.7478L7.13341 12.5636L6.76955 10.6894L5.21631 10.2344Z" fill="#F5841F" stroke="#F5841F" stroke-width="0.25" stroke-linecap="round" stroke-linejoin="round"/>
<path d="M9.06132 14.4743L9.07762 13.9596L8.93641 13.8405H6.86182L6.72604 13.9596L6.73691 14.4743L4.99902 13.6509L5.60732 14.1492L6.84009 14.9997H8.95271L10.191 14.1492L10.7938 13.6509L9.06132 14.4743Z" fill="#C0AC9D" stroke="#C0AC9D" stroke-width="0.25" stroke-linecap="round" stroke-linejoin="round"/>
<path d="M8.92659 12.7477L8.66589 12.5635H7.13439L6.8737 12.7477L6.72705 13.961L6.86283 13.8419H8.93741L9.07863 13.961L8.92659 12.7477Z" fill="#161616" stroke="#161616" stroke-width="0.25" stroke-linecap="round" stroke-linejoin="round"/>
<path d="M14.4652 6.32809L14.9269 4.08551L14.2317 2L8.92578 5.92727L10.9678 7.64982L13.8515 8.48946L14.487 7.74735L14.21 7.54689L14.6499 7.14607L14.3132 6.88605L14.7531 6.55019L14.4652 6.32809Z" fill="#763E1A" stroke="#763E1A" stroke-width="0.25" stroke-linecap="round" stroke-linejoin="round"/>
<path d="M0.87207 4.08551L1.33913 6.32809L1.04043 6.55019L1.48576 6.88605L1.14904 7.14607L1.58894 7.54689L1.31197 7.74735L1.94738 8.48946L4.83119 7.64982L6.87317 5.92727L1.56722 2L0.87207 4.08551Z" fill="#763E1A" stroke="#763E1A" stroke-width="0.25" stroke-linecap="round" stroke-linejoin="round"/>
<path d="M13.8514 8.48954L10.9676 7.6499L11.8366 8.9608L10.5386 11.4905L12.2547 11.4688H14.8181L13.8514 8.48954Z" fill="#F5841F" stroke="#F5841F" stroke-width="0.25" stroke-linecap="round" stroke-linejoin="round"/>
<path d="M4.83137 7.6499L1.94759 8.48954L0.986328 11.4688H3.54426L5.26041 11.4905L3.96244 8.9608L4.83137 7.6499Z" fill="#F5841F" stroke="#F5841F" stroke-width="0.25" stroke-linecap="round" stroke-linejoin="round"/>
<path d="M8.74067 9.10111L8.92532 5.92682L9.76169 3.66797H6.03613L6.87247 5.92682L7.05712 9.10111L7.12773 10.0978L7.13316 12.5625H8.66466L8.6701 10.0978L8.74067 9.10111Z" fill="#F5841F" stroke="#F5841F" stroke-width="0.25" stroke-linecap="round" stroke-linejoin="round"/>
</g>
</svg>
