<svg width="100%" height="100%" viewBox="0 0 24 24" fill="none" xmlns="http://www.w3.org/2000/svg">
<mask id="mask0" mask-type="alpha" maskUnits="userSpaceOnUse" x="0" y="0" width="24" height="24">
<rect width="24" height="24" fill="#C4C4C4"/>
</mask>
<g mask="url(#mask0)">
<path fill-rule="evenodd" clip-rule="evenodd" d="M11.9999 10.2C11.0058 10.2 10.1999 11.0059 10.1999 12C10.1999 12.9942 11.0058 13.8 11.9999 13.8C12.994 13.8 13.7999 12.9942 13.7999 12C13.7999 11.0059 12.994 10.2 11.9999 10.2ZM8.79993 12C8.79993 10.2327 10.2326 8.80005 11.9999 8.80005C13.7672 8.80005 15.1999 10.2327 15.1999 12C15.1999 13.7674 13.7672 15.2 11.9999 15.2C10.2326 15.2 8.79993 13.7674 8.79993 12Z" fill="currentColor"/>
<path fill-rule="evenodd" clip-rule="evenodd" d="M12 5.80005C12.3866 5.80005 12.7 6.11345 12.7 6.50005V7.25005C12.7 7.63665 12.3866 7.95005 12 7.95005C11.6134 7.95005 11.3 7.63665 11.3 7.25005V6.50005C11.3 6.11345 11.6134 5.80005 12 5.80005Z" fill="currentColor"/>
<path fill-rule="evenodd" clip-rule="evenodd" d="M12 15.8C12.3866 15.8 12.7 16.1134 12.7 16.5V17.25C12.7 17.6366 12.3866 17.95 12 17.95C11.6134 17.95 11.3 17.6366 11.3 17.25V16.5C11.3 16.1134 11.6134 15.8 12 15.8Z" fill="currentColor"/>
<path fill-rule="evenodd" clip-rule="evenodd" d="M7.61506 7.61494C7.88843 7.34157 8.33164 7.34157 8.60501 7.61494L9.35501 8.36494C9.62838 8.6383 9.62838 9.08152 9.35501 9.35489C9.08164 9.62825 8.63843 9.62825 8.36506 9.35489L7.61506 8.60489C7.34169 8.33152 7.34169 7.8883 7.61506 7.61494Z" fill="currentColor"/>
<path fill-rule="evenodd" clip-rule="evenodd" d="M14.685 14.685C14.9584 14.4116 15.4016 14.4116 15.675 14.685L16.425 15.435C16.6983 15.7084 16.6983 16.1516 16.425 16.425C16.1516 16.6983 15.7084 16.6983 15.435 16.425L14.685 15.675C14.4116 15.4016 14.4116 14.9584 14.685 14.685Z" fill="currentColor"/>
<path fill-rule="evenodd" clip-rule="evenodd" d="M5.79993 12C5.79993 11.6134 6.11333 11.3 6.49993 11.3H7.24993C7.63653 11.3 7.94993 11.6134 7.94993 12C7.94993 12.3866 7.63653 12.7 7.24993 12.7H6.49993C6.11333 12.7 5.79993 12.3866 5.79993 12Z" fill="currentColor"/>
<path fill-rule="evenodd" clip-rule="evenodd" d="M15.8 12C15.8 11.6134 16.1134 11.3 16.5 11.3H17.25C17.6366 11.3 17.95 11.6134 17.95 12C17.95 12.3866 17.6366 12.7 17.25 12.7H16.5C16.1134 12.7 15.8 12.3866 15.8 12Z" fill="currentColor"/>
<path fill-rule="evenodd" clip-rule="evenodd" d="M9.35501 14.685C9.62838 14.9584 9.62838 15.4016 9.35501 15.675L8.60501 16.425C8.33164 16.6983 7.88843 16.6983 7.61506 16.425C7.34169 16.1516 7.34169 15.7084 7.61506 15.435L8.36506 14.685C8.63843 14.4116 9.08164 14.4116 9.35501 14.685Z" fill="currentColor"/>
<path fill-rule="evenodd" clip-rule="evenodd" d="M16.425 7.61494C16.6983 7.8883 16.6983 8.33152 16.425 8.60489L15.675 9.35489C15.4016 9.62825 14.9584 9.62825 14.685 9.35489C14.4116 9.08152 14.4116 8.6383 14.685 8.36494L15.435 7.61494C15.7084 7.34157 16.1516 7.34157 16.425 7.61494Z" fill="currentColor"/>
</g>
</svg>
