<svg width="100%" height="100%" viewBox="0 0 24 24" fill="none" xmlns="http://www.w3.org/2000/svg">
<rect opacity="0.01" x="1.5" y="22.5" width="21" height="21" transform="rotate(-90 1.5 22.5)" fill="black"/>
<path fill-rule="evenodd" clip-rule="evenodd" d="M11.2857 16.278V8.43869C11.2857 8.03925 10.966 7.71429 10.5709 7.71429C10.1759 7.71429 9.85617 8.03756 9.85617 8.43699V14.5347L8.21905 12.8794C7.94117 12.5967 7.48921 12.5984 7.20966 12.8794C6.93011 13.1603 6.93011 13.6173 7.20966 13.9L10.0671 16.7891C10.2713 16.9956 10.5776 17.0565 10.8455 16.9448C11.1116 16.8331 11.2857 16.5708 11.2857 16.278ZM13.1546 7.77021C13.4225 7.6568 13.7288 7.71943 13.9331 7.92594L16.7908 10.8154C16.9297 10.9559 17 11.137 17 11.3232C17 11.5094 16.9297 11.6939 16.7908 11.8344C16.5129 12.1171 16.0609 12.1171 15.7813 11.8344L14.144 10.1789V16.2772C14.144 16.6767 13.8242 17 13.4292 17C13.0341 17 12.7143 16.6767 12.7143 16.2772V8.43713C12.7143 8.14599 12.8867 7.88193 13.1546 7.77021Z" fill="currentColor"/>
</svg>
