<svg width="64" height="64" viewBox="0 0 64 64" fill="none" xmlns="http://www.w3.org/2000/svg">
<mask id="mask0_11196_15445" style="mask-type:alpha" maskUnits="userSpaceOnUse" x="0" y="0" width="64" height="64">
<rect width="64" height="64" fill="white"/>
</mask>
<g mask="url(#mask0_11196_15445)">
<path d="M60.0004 4V13.0093C60.0004 23.3797 51.6705 31.8061 41.3312 31.9736L41.0173 31.9762L32 31.9767V41.0085C32 51.6782 23.5294 60 13.0942 60H4V50.7232C4 50.6817 4.00013 50.6402 4.0004 50.5988V30.5537C4.0004 15.8885 15.899 4 30.5767 4H60.0004Z" fill="white"/>
<path fill-rule="evenodd" clip-rule="evenodd" d="M47.979 4H60V13.0085C60 23.6782 51.5294 32 41.0942 32H40.7803H32V22.7306C32 13.2772 38.9223 5.43915 47.979 4Z" fill="#242265" fill-opacity="0.8"/>
<path d="M60.0004 4V13.0093C60.0004 23.3797 51.6705 31.8061 41.3312 31.9736L41.0173 31.9762L32 31.9767V41.0085C32 51.6782 23.5294 60 13.0942 60H4V50.7232C4 50.6817 4.00013 50.6402 4.0004 50.5988V30.5537C4.0004 15.8885 15.899 4 30.5767 4H60.0004Z" fill="#616EE1" fill-opacity="0.8"/>
</g>
</svg>
