<svg width="16" height="16" viewBox="0 0 16 16" fill="none" xmlns="http://www.w3.org/2000/svg">
<mask id="mask0" mask-type="alpha" maskUnits="userSpaceOnUse" x="-1" y="-1" width="18" height="18">
<circle cx="8" cy="8" r="8" fill="white" stroke="#EAEDFC"/>
</mask>
<g mask="url(#mask0)">
<path d="M13.7456 2L8.67749 5.75001L9.61994 3.54001L13.7456 2Z" fill="#E17726" stroke="#E17726" stroke-width="0.25" stroke-linecap="round" stroke-linejoin="round"/>
<path d="M2.05542 2L7.07836 5.78501L6.18105 3.54L2.05542 2Z" fill="#E27625" stroke="#E27625" stroke-width="0.25" stroke-linecap="round" stroke-linejoin="round"/>
<path d="M11.921 10.6951L10.5725 12.7551L13.4599 13.5501L14.2871 10.7401L11.921 10.6951Z" fill="#E27625" stroke="#E27625" stroke-width="0.25" stroke-linecap="round" stroke-linejoin="round"/>
<path d="M1.51904 10.7401L2.34116 13.5501L5.22359 12.7551L3.88012 10.6951L1.51904 10.7401Z" fill="#E27625" stroke="#E27625" stroke-width="0.25" stroke-linecap="round" stroke-linejoin="round"/>
<path d="M5.06794 7.21522L4.26587 8.42523L7.12324 8.55523L7.02797 5.48022L5.06794 7.21522Z" fill="#E27625" stroke="#E27625" stroke-width="0.25" stroke-linecap="round" stroke-linejoin="round"/>
<path d="M10.7328 7.21507L8.74263 5.44507L8.67749 8.55509L11.5348 8.42509L10.7328 7.21507Z" fill="#E27625" stroke="#E27625" stroke-width="0.25" stroke-linecap="round" stroke-linejoin="round"/>
<path d="M5.22363 12.7552L6.95307 11.9203L5.46426 10.7603L5.22363 12.7552Z" fill="#E27625" stroke="#E27625" stroke-width="0.25" stroke-linecap="round" stroke-linejoin="round"/>
<path d="M8.84814 11.9203L10.5726 12.7552L10.337 10.7603L8.84814 11.9203Z" fill="#E27625" stroke="#E27625" stroke-width="0.25" stroke-linecap="round" stroke-linejoin="round"/>
<path d="M10.5721 12.7549L8.84766 11.9199L8.98804 13.0399L8.97299 13.5149L10.5721 12.7549Z" fill="#D5BFB2" stroke="#D5BFB2" stroke-width="0.25" stroke-linecap="round" stroke-linejoin="round"/>
<path d="M5.22339 12.7549L6.82753 13.5149L6.8175 13.0399L6.95286 11.9199L5.22339 12.7549Z" fill="#D5BFB2" stroke="#D5BFB2" stroke-width="0.25" stroke-linecap="round" stroke-linejoin="round"/>
<path d="M6.85729 10.02L5.42358 9.60002L6.43623 9.13501L6.85729 10.02Z" fill="#233447" stroke="#233447" stroke-width="0.25" stroke-linecap="round" stroke-linejoin="round"/>
<path d="M8.94287 10.02L9.36397 9.13501L10.3816 9.60002L8.94287 10.02Z" fill="#233447" stroke="#233447" stroke-width="0.25" stroke-linecap="round" stroke-linejoin="round"/>
<path d="M5.2236 12.7551L5.47423 10.6951L3.88013 10.7401L5.2236 12.7551Z" fill="#CC6228" stroke="#CC6228" stroke-width="0.25" stroke-linecap="round" stroke-linejoin="round"/>
<path d="M10.3264 10.6951L10.5721 12.7551L11.9205 10.7401L10.3264 10.6951Z" fill="#CC6228" stroke="#CC6228" stroke-width="0.25" stroke-linecap="round" stroke-linejoin="round"/>
<path d="M11.5349 8.42505L8.67749 8.55505L8.94316 10.02L9.36426 9.13505L10.3819 9.60007L11.5349 8.42505Z" fill="#CC6228" stroke="#CC6228" stroke-width="0.25" stroke-linecap="round" stroke-linejoin="round"/>
<path d="M5.4236 9.60007L6.43621 9.13505L6.85731 10.02L7.12298 8.55505L4.26562 8.42505L5.4236 9.60007Z" fill="#CC6228" stroke="#CC6228" stroke-width="0.25" stroke-linecap="round" stroke-linejoin="round"/>
<path d="M4.26562 8.42505L5.46372 10.7601L5.42362 9.60007L4.26562 8.42505Z" fill="#E27525" stroke="#E27525" stroke-width="0.25" stroke-linecap="round" stroke-linejoin="round"/>
<path d="M10.3818 9.60007L10.3367 10.7601L11.5348 8.42505L10.3818 9.60007Z" fill="#E27525" stroke="#E27525" stroke-width="0.25" stroke-linecap="round" stroke-linejoin="round"/>
<path d="M7.12289 8.55493L6.85718 10.02L7.19304 11.7499L7.26825 9.46995L7.12289 8.55493Z" fill="#E27525" stroke="#E27525" stroke-width="0.25" stroke-linecap="round" stroke-linejoin="round"/>
<path d="M8.67749 8.55493L8.53711 9.46497L8.6073 11.7499L8.94316 10.02L8.67749 8.55493Z" fill="#E27525" stroke="#E27525" stroke-width="0.25" stroke-linecap="round" stroke-linejoin="round"/>
<path d="M8.94304 10.0201L8.60718 11.7501L8.84781 11.9201L10.3367 10.7601L10.3818 9.6001L8.94304 10.0201Z" fill="#F5841F" stroke="#F5841F" stroke-width="0.25" stroke-linecap="round" stroke-linejoin="round"/>
<path d="M5.42358 9.6001L5.46371 10.7601L6.95252 11.9201L7.19315 11.7501L6.85729 10.0201L5.42358 9.6001Z" fill="#F5841F" stroke="#F5841F" stroke-width="0.25" stroke-linecap="round" stroke-linejoin="round"/>
<path d="M8.97305 13.5149L8.9881 13.0399L8.85775 12.9299H6.94283L6.8175 13.0399L6.82753 13.5149L5.22339 12.7549L5.78487 13.2149L6.92276 13.9999H8.8728L10.0158 13.2149L10.5722 12.7549L8.97305 13.5149Z" fill="#C0AC9D" stroke="#C0AC9D" stroke-width="0.25" stroke-linecap="round" stroke-linejoin="round"/>
<path d="M8.84764 11.92L8.60701 11.75H7.19338L6.95275 11.92L6.81738 13.04L6.94271 12.93H8.85764L8.98798 13.04L8.84764 11.92Z" fill="#161616" stroke="#161616" stroke-width="0.25" stroke-linecap="round" stroke-linejoin="round"/>
<path d="M13.9608 5.995L14.3869 3.92501L13.7452 2L8.84766 5.62503L10.7325 7.21501L13.3943 7.99003L13.9809 7.30503L13.7252 7.12001L14.1312 6.75003L13.8205 6.51002L14.2265 6.20001L13.9608 5.995Z" fill="#763E1A" stroke="#763E1A" stroke-width="0.25" stroke-linecap="round" stroke-linejoin="round"/>
<path d="M1.41357 3.92501L1.84468 5.995L1.56898 6.20001L1.98003 6.51002L1.66923 6.75003L2.07528 7.12001L1.81962 7.30503L2.40613 7.99003L5.068 7.21501L6.95283 5.62503L2.05523 2L1.41357 3.92501Z" fill="#763E1A" stroke="#763E1A" stroke-width="0.25" stroke-linecap="round" stroke-linejoin="round"/>
<path d="M13.3945 7.99011L10.7327 7.21509L11.5348 8.4251L10.3367 10.7601L11.9207 10.7401H14.2868L13.3945 7.99011Z" fill="#F5841F" stroke="#F5841F" stroke-width="0.25" stroke-linecap="round" stroke-linejoin="round"/>
<path d="M5.06818 7.21509L2.40633 7.99011L1.51904 10.7401H3.88012L5.4642 10.7601L4.26612 8.4251L5.06818 7.21509Z" fill="#F5841F" stroke="#F5841F" stroke-width="0.25" stroke-linecap="round" stroke-linejoin="round"/>
<path d="M8.67681 8.55481L8.84725 5.62481L9.61926 3.53979H6.18042L6.95239 5.62481L7.12283 8.55481L7.18801 9.4748L7.19302 11.7498H8.60666L8.61168 9.4748L8.67681 8.55481Z" fill="#F5841F" stroke="#F5841F" stroke-width="0.25" stroke-linecap="round" stroke-linejoin="round"/>
</g>
</svg>
