<svg width="105" height="60" viewBox="0 0 105 60" fill="none" xmlns="http://www.w3.org/2000/svg">
<mask id="mask0" mask-type="alpha" maskUnits="userSpaceOnUse" x="0" y="0" width="105" height="60">
<rect width="105" height="60" fill="#C4C4C4"/>
</mask>
<g mask="url(#mask0)">
<path d="M76.4448 39.0339C80.237 35.7564 87.4823 28.4007 86.1257 25.1975C84.43 21.1934 77.987 23.3719 79.3759 27.4797C80.7648 31.5875 90.8101 29.9515 93.2234 25.9666C95.1541 22.7786 95.6715 19.3878 95.6888 18.0909" stroke="#EAECEF" stroke-dasharray="3 3"/>
<path d="M92.5 19.5L96 17C96 17 98 20.5 97.5 19.5" stroke="#EAECEF" stroke-dasharray="3 3"/>
<circle cx="45.5" cy="37.5" r="37.5" fill="url(#paint0_linear)"/>
<path d="M15.0429 52H42.0637C43.1912 52 43.4566 50.4246 42.3913 50.0552L38.7021 48.7759C37.6815 48.4221 36.5844 48.3503 35.5265 48.5681L32.066 49.2805C30.9348 49.5134 29.7581 49.246 28.8387 48.5471L26.4321 46.7176C24.3127 45.1065 21.3852 45.0846 19.2419 46.6639L14.4497 50.1949C13.6726 50.7676 14.0776 52 15.0429 52Z" fill="url(#paint1_linear)"/>
<path d="M50.2213 52H60.1602C60.9591 52 61.167 50.8949 60.4227 50.6045C59.6096 50.2873 58.7197 50.223 57.8694 50.42L57.3357 50.5436C56.5756 50.7196 55.777 50.5243 55.1841 50.0171C53.821 48.8515 51.8168 48.8361 50.436 49.9807L49.7101 50.5824C49.1326 51.0611 49.4711 52 50.2213 52Z" fill="url(#paint2_linear)"/>
<path d="M38 23C38 18.0294 42.0294 14 47 14H68C72.4183 14 76 17.5817 76 22V34H38V23Z" fill="url(#paint3_linear)"/>
<mask id="mask1" mask-type="alpha" maskUnits="userSpaceOnUse" x="38" y="14" width="38" height="20">
<path d="M38 23C38 18.0294 42.0294 14 47 14H68C72.4183 14 76 17.5817 76 22V34H38V23Z" fill="#EAECEF"/>
</mask>
<g mask="url(#mask1)">
<rect x="46" y="14" width="34" height="4" fill="url(#paint4_linear)"/>
</g>
<path d="M38 21.5C38 17.3579 41.3579 14 45.5 14C49.6421 14 53 17.3579 53 21.5V34H38V21.5Z" fill="url(#paint5_linear)"/>
<path d="M41 23C41 20.7909 42.7909 19 45 19C47.2091 19 49 20.7909 49 23H41Z" fill="url(#paint6_linear)"/>
<path fill-rule="evenodd" clip-rule="evenodd" d="M21.6869 34.0502L20.2118 38.5247C19.5877 40.4179 20.3838 42.4613 22.0603 43.4514V49.0256H22.8224V43.5691C24.8851 42.6285 25.8886 40.2292 25.0618 38.0795L23.4951 34.0062C23.1711 33.1639 21.9695 33.1931 21.6869 34.0502Z" fill="url(#paint7_linear)"/>
<path d="M23 36L22 42" stroke="url(#paint8_linear)" stroke-linecap="round"/>
<path d="M55 34H58V50.5C58 51.3284 57.3284 52 56.5 52C55.6716 52 55 51.3284 55 50.5V34Z" fill="#EAECEF"/>
<rect x="36" y="32" width="40" height="2" rx="1" fill="#E1E2E6"/>
<circle cx="41.5" cy="9.5" r="3.5" fill="url(#paint9_linear)"/>
</g>
<defs>
<linearGradient id="paint0_linear" x1="45.5" y1="0" x2="41.5" y2="36.5" gradientUnits="userSpaceOnUse">
<stop stop-color="#E9EDF3"/>
<stop offset="1" stop-color="#F7F8FA" stop-opacity="0"/>
</linearGradient>
<linearGradient id="paint1_linear" x1="30" y1="44" x2="30" y2="53.5" gradientUnits="userSpaceOnUse">
<stop stop-color="#EAECEF"/>
<stop offset="1" stop-color="#EAECEF" stop-opacity="0"/>
</linearGradient>
<linearGradient id="paint2_linear" x1="56" y1="48" x2="56" y2="52.75" gradientUnits="userSpaceOnUse">
<stop stop-color="#EAECEF"/>
<stop offset="1" stop-color="#EAECEF" stop-opacity="0"/>
</linearGradient>
<linearGradient id="paint3_linear" x1="74" y1="41.5" x2="20.5" y2="4.5" gradientUnits="userSpaceOnUse">
<stop stop-color="#DDE2EA"/>
<stop offset="1" stop-color="#EAECEF" stop-opacity="0"/>
</linearGradient>
<linearGradient id="paint4_linear" x1="63" y1="14" x2="63" y2="18" gradientUnits="userSpaceOnUse">
<stop stop-color="#FDFEFF"/>
<stop offset="1" stop-color="#F8F9FA" stop-opacity="0"/>
</linearGradient>
<linearGradient id="paint5_linear" x1="46" y1="14" x2="41" y2="50" gradientUnits="userSpaceOnUse">
<stop stop-color="white"/>
<stop offset="1" stop-color="#F7F8FA" stop-opacity="0"/>
</linearGradient>
<linearGradient id="paint6_linear" x1="45" y1="19" x2="45" y2="23" gradientUnits="userSpaceOnUse">
<stop stop-color="#E0E3E7"/>
<stop offset="1" stop-color="#EAECEF" stop-opacity="0.56"/>
</linearGradient>
<linearGradient id="paint7_linear" x1="22.6757" y1="33.3906" x2="22.6681" y2="62.3912" gradientUnits="userSpaceOnUse">
<stop stop-color="#EAECEF"/>
<stop offset="1" stop-color="#EAECEF" stop-opacity="0.47"/>
</linearGradient>
<linearGradient id="paint8_linear" x1="22.5" y1="36" x2="22.8679" y2="41.5801" gradientUnits="userSpaceOnUse">
<stop stop-color="#E0E4EA"/>
<stop offset="1" stop-color="#E0E4EA" stop-opacity="0"/>
</linearGradient>
<linearGradient id="paint9_linear" x1="41.5" y1="6" x2="41.5" y2="13" gradientUnits="userSpaceOnUse">
<stop stop-color="white"/>
<stop offset="1" stop-color="#FAFBFC" stop-opacity="0"/>
</linearGradient>
</defs>
</svg>
