<svg width="24" height="24" viewBox="0 0 24 24" fill="none" xmlns="http://www.w3.org/2000/svg">
<mask id="mask0" mask-type="alpha" maskUnits="userSpaceOnUse" x="0" y="0" width="24" height="24">
<rect width="24" height="24" fill="#C4C4C4"/>
</mask>
<g mask="url(#mask0)">
<path fill-rule="evenodd" clip-rule="evenodd" d="M12 22C17.5228 22 22 17.5228 22 12C22 6.47715 17.5228 2 12 2C6.47715 2 2 6.47715 2 12C2 17.5228 6.47715 22 12 22Z" fill="#FFC438"/>
<path d="M11.9998 7C12.4272 7 12.7794 7.3217 12.8276 7.73615L12.8332 7.83333V14.5C12.8332 14.9602 12.4601 15.3333 11.9998 15.3333C11.5725 15.3333 11.2202 15.0116 11.1721 14.5972L11.1665 14.5V7.83333C11.1665 7.3731 11.5396 7 11.9998 7Z" fill="white"/>
<path fill-rule="evenodd" clip-rule="evenodd" d="M11.9996 17.8334C12.4598 17.8334 12.8329 17.4603 12.8329 17.0001C12.8329 16.5398 12.4598 16.1667 11.9996 16.1667C11.5394 16.1667 11.1663 16.5398 11.1663 17.0001C11.1663 17.4603 11.5394 17.8334 11.9996 17.8334Z" fill="white"/>
</g>
</svg>
